<svg width="20" height="20" viewBox="0 0 20 20" fill="none" xmlns="http://www.w3.org/2000/svg">
<path fill-rule="evenodd" clip-rule="evenodd" d="M13.3941 1.80795C11.2209 0.907767 8.77907 0.907767 6.60587 1.80795C4.43264 2.70813 2.70605 4.43472 1.80587 6.60795C0.905693 8.78115 0.905693 11.2229 1.80587 13.3962C2.70605 15.5694 4.43264 17.296 6.60587 18.1962C8.77907 19.0963 11.2209 19.0963 13.3941 18.1962C15.5673 17.296 17.2939 15.5694 18.1941 13.3962C19.0943 11.2229 19.0943 8.78115 18.1941 6.60795C17.2939 4.43472 15.5673 2.70813 13.3941 1.80795ZM13.3889 7.0548C13.6909 6.66003 13.6158 6.09516 13.221 5.79312C12.8262 5.49108 12.2614 5.56626 11.9593 5.96103L10.4391 7.94802C10.2976 7.91793 10.1508 7.90209 10.0003 7.90209C8.84048 7.90209 7.90028 8.84229 7.90028 10.0021C7.90028 11.1619 8.84048 12.1021 10.0003 12.1021C10.4487 12.1021 10.8643 11.9616 11.2054 11.7221L15.118 13.948C15.5501 14.1937 16.0996 14.0428 16.3453 13.6107C16.5911 13.1787 16.4401 12.6292 16.0081 12.3834L12.0946 10.1571C12.0984 10.1059 12.1003 10.0542 12.1003 10.0021C12.1003 9.65616 12.0166 9.32976 11.8685 9.04203L13.3889 7.0548Z" fill="#A0ABB5"/>
</svg>
