<svg width="20" height="20" viewBox="0 0 20 20" fill="none" xmlns="http://www.w3.org/2000/svg">
<path fill-rule="evenodd" clip-rule="evenodd" d="M19 10C19 14.9706 14.9706 19 10 19C5.02943 19 1 14.9706 1 10C1 5.02943 5.02943 1 10 1C14.9706 1 19 5.02943 19 10ZM9.98965 4.05357C10.4334 4.05357 10.7932 4.41335 10.7932 4.85714V12.0571C10.7932 12.5009 10.4334 12.8607 9.98965 12.8607C9.54585 12.8607 9.18608 12.5009 9.18608 12.0571V4.85714C9.18608 4.41335 9.54585 4.05357 9.98965 4.05357ZM10.7932 14.3714C10.7932 13.9276 10.4334 13.5678 9.98965 13.5678C9.54585 13.5678 9.18608 13.9276 9.18608 14.3714V14.8857C9.18608 15.3295 9.54585 15.6893 9.98965 15.6893C10.4334 15.6893 10.7932 15.3295 10.7932 14.8857V14.3714Z" fill="#D20202"/>
</svg>
